<svg width="400" height="400" viewBox="0 0 400 400" fill="currentColor" xmlns="http://www.w3.org/2000/svg">
<path fill-rule="evenodd" clip-rule="evenodd" d="M164.22 23.0852C164.22 23.2558 164.218 23.426 164.214 23.5956C199.364 29.81 233.576 68.2513 267.054 121.722L325.817 81.1481C334.075 119.745 325.447 140.724 285.942 176.987C217.022 175.247 181.982 185.602 126.444 225.955L116.65 221.758C107.606 253.131 101.537 268.717 88.6682 292.413L39 270.727L80.2736 195.175C67.8749 182.104 62.0939 173.509 55.0897 154.601L100.561 157.399L108.955 135.713C105.232 83.6511 109.682 61.1494 123.667 38.1791C120.167 34.132 118.049 28.8559 118.049 23.0852C118.049 10.3356 128.385 0 141.135 0C153.884 0 164.22 10.3356 164.22 23.0852ZM161.422 261.633C155.053 346.716 260.474 438.249 361.494 382.655C311.624 365.154 286.717 350.084 276.148 309.902C297.835 307.803 283.843 246.243 220.184 290.314C196.035 293.459 181.37 279.198 171.488 269.588C167.437 265.648 164.19 262.49 161.422 261.633ZM268.144 209.285C244.007 198.479 228.455 213.151 223.697 221.839C226.319 220.463 231.702 218.019 238.179 215.854C238.157 216.088 238.162 216.323 238.196 216.556C238.652 219.657 244.049 221.432 250.25 220.52C256.451 219.609 261.109 216.356 260.653 213.255C260.611 212.966 260.525 212.688 260.4 212.423C265.375 212.89 270.577 213.9 274.428 214.648L274.428 214.648C282.222 216.161 284.485 216.601 268.144 209.285Z"/>
</svg>
