<svg width="400" height="400" viewBox="0 0 400 400" xmlns="http://www.w3.org/2000/svg">
<path fill-rule="evenodd" clip-rule="evenodd" d="M0 0H400V400H0V0ZM35 35H365V365H35V35ZM174.496 73.8648C174.499 73.7435 174.5 73.6219 174.5 73.5C174.5 64.3873 167.113 57 158 57C148.887 57 141.5 64.3873 141.5 73.5C141.5 77.6245 143.013 81.3956 145.515 84.2882C135.519 100.706 132.339 116.789 135 154L129 169.5L96.5 167.5C101.506 181.014 105.638 187.158 114.5 196.5L85 250.5L120.5 266C129.698 249.063 134.036 237.924 140.5 215.5L147.5 218.5C187.195 189.657 212.24 182.257 261.5 183.5C289.736 157.581 295.903 142.587 290 115L248 144C224.072 105.782 199.619 78.3065 174.496 73.8648ZM315.5 330.5C243.297 370.235 167.948 304.813 172.5 244C174.478 244.613 176.799 246.87 179.695 249.686C186.758 256.555 197.239 266.748 214.5 264.5C260 233 270 277 254.5 278.5C262.054 307.22 279.856 317.991 315.5 330.5ZM217.011 215.558C220.412 209.348 231.527 198.861 248.779 206.585C260.458 211.814 258.841 211.5 253.27 210.418C250.518 209.883 246.8 209.161 243.244 208.828C243.333 209.017 243.395 209.216 243.425 209.423C243.751 211.639 240.422 213.964 235.989 214.615C231.557 215.267 227.7 213.998 227.374 211.782C227.365 211.723 227.359 211.663 227.356 211.603C227.349 211.496 227.351 211.388 227.362 211.28C222.732 212.827 218.885 214.574 217.011 215.558Z"/>
</svg>
